<svg width="44" height="56" viewBox="0 0 22 28" fill="none" xmlns="http://www.w3.org/2000/svg">
<path d="M10.6096 27.9929L13.7182 27.5758C13.8804 27.5552 14.0295 27.4782 14.1379 27.3591C14.2464 27.24 14.307 27.0868 14.3086 26.9277V25.8386C14.3077 25.6992 14.2608 25.5637 14.1748 25.4522C14.0888 25.3406 13.9683 25.2589 13.8309 25.2191C13.5492 25.1309 13.0543 25.119 12.6379 24.5995C11.7879 23.5319 11.9569 14.1144 12.3366 12.3867C12.4054 12.0648 12.5157 11.7525 12.6649 11.4574C12.8433 11.115 13.117 10.8282 13.4549 10.6298C13.7927 10.4313 14.181 10.3292 14.5756 10.335H18.5612L21.2142 5.60953L18.5612 0.876938C13.6325 1.19149 10.6096 0 10.6096 0C10.6096 0 7.59401 1.21055 2.65056 0.891235L0 5.61906L2.65545 10.3445H6.64108C7.03539 10.3401 7.42314 10.4428 7.7607 10.6411C8.09826 10.8394 8.37225 11.1254 8.55184 11.4669C8.6979 11.7671 8.80409 12.0842 8.86785 12.4106C9.24755 14.1477 9.41657 23.5557 8.56408 24.6233C8.15008 25.1428 7.6528 25.1547 7.37354 25.2429C7.23429 25.2813 7.11145 25.3622 7.02321 25.4738C6.93497 25.5854 6.88602 25.7217 6.8836 25.8625V26.9372C6.88607 27.0973 6.94831 27.2512 7.05873 27.37C7.16915 27.4888 7.32022 27.5645 7.48377 27.583L10.5973 28" fill="#60a5fa"/>
</svg>
